HIERARCHY
ROOT root
{
	OFFSET 0.000000 0.000000 0.000000
	CHANNELS 6 Xposition Yposition Zposition Zrotation Yrotation Xrotation
	JOINT lhip
	{
		OFFSET 0.058581 -0.082280 -0.017664
		CHANNELS 3 Zrotation Yrotation Xrotation
		JOINT lknee
		{
			OFFSET 0.043451 -0.386469 0.008037
			CHANNELS 3 Zrotation Yrotation Xrotation
			JOINT lankle
			{
				OFFSET -0.014790 -0.426874 -0.037428
				CHANNELS 3 Zrotation Yrotation Xrotation
				JOINT ltoe
				{
					OFFSET 0.041054 -0.060286 0.122042
					CHANNELS 3 Zrotation Yrotation Xrotation
					End Site
					{
						OFFSET 0.000000 0.000000 0.000000
					}
				}
			}
		}
	}
	JOINT rhip
	{
		OFFSET -0.060310 -0.090513 -0.013543
		CHANNELS 3 Zrotation Yrotation Xrotation
		JOINT rknee
		{
			OFFSET -0.043257 -0.383688 -0.004843
			CHANNELS 3 Zrotation Yrotation Xrotation
			JOINT rankle
			{
				OFFSET 0.019056 -0.420046 -0.034562
				CHANNELS 3 Zrotation Yrotation Xrotation
				JOINT rtoe
				{
					OFFSET -0.034840 -0.062106 0.130323
					CHANNELS 3 Zrotation Yrotation Xrotation
					End Site
					{
						OFFSET 0.000000 0.000000 0.000000
					}
				}
			}
		}
	}
	JOINT lowerback
	{
		OFFSET 0.004439 0.124404 -0.038385
		CHANNELS 3 Zrotation Yrotation Xrotation
		JOINT upperback
		{
			OFFSET 0.004488 0.137956 0.026820
			CHANNELS 3 Zrotation Yrotation Xrotation
			JOINT chest
			{
				OFFSET -0.002265 0.056032 0.002855
				CHANNELS 3 Zrotation Yrotation Xrotation
				JOINT lowerneck
				{
					OFFSET -0.013390 0.211636 -0.033468
					CHANNELS 3 Zrotation Yrotation Xrotation
					JOINT upperneck
					{
						OFFSET 0.010113 0.088937 0.050410
						CHANNELS 3 Zrotation Yrotation Xrotation
						End Site
						{
							OFFSET 0.000000 0.000000 0.000000
						}
					}
				}
				JOINT lclavicle
				{
					OFFSET 0.071702 0.114000 -0.018898
					CHANNELS 3 Zrotation Yrotation Xrotation
					JOINT lshoulder
					{
						OFFSET 0.122921 0.045205 -0.019046
						CHANNELS 3 Zrotation Yrotation Xrotation
						JOINT lelbow
						{
							OFFSET 0.255332 -0.015649 -0.022946
							CHANNELS 3 Zrotation Yrotation Xrotation
							JOINT lwrist
							{
								OFFSET 0.265709 0.012698 -0.007375
								CHANNELS 3 Zrotation Yrotation Xrotation
								End Site
								{
									OFFSET 0.000000 0.000000 0.000000
								}
							}
						}
					}
				}
				JOINT rclavicle
				{
					OFFSET -0.082954 0.112472 -0.023707
					CHANNELS 3 Zrotation Yrotation Xrotation
					JOINT rshoulder
					{
						OFFSET -0.113228 0.046853 -0.008472
						CHANNELS 3 Zrotation Yrotation Xrotation
						JOINT relbow
						{
							OFFSET -0.260127 -0.014369 -0.031269
							CHANNELS 3 Zrotation Yrotation Xrotation
							JOINT rwrist
							{
								OFFSET -0.269108 0.006794 -0.006027
								CHANNELS 3 Zrotation Yrotation Xrotation
								End Site
								{
									OFFSET 0.000000 0.000000 0.000000
								}
							}
						}
					}
				}
			}
		}
	}
}
MOTION
Frames: 13
Frame Time: 0.033333
0.945733 0.821673 1.041090 91.038248 -3.415780 85.838161 0.786441 1.902945 7.057710 -2.794568 -7.616699 -1.312594 9.322787 3.695618 -18.506241 0.000000 -0.000000 0.000000 -4.169821 -4.571933 9.126105 -0.412383 -1.088455 -0.380988 2.563993 -3.824229 -12.934786 0.000000 -0.000000 0.000000 -1.600721 2.113025 -2.335726 0.502432 -3.771075 6.741250 -4.027973 -0.974347 -2.184246 1.165817 -23.751155 2.950957 0.606912 -34.799954 13.206351 -29.796648 3.394039 7.021501 -54.348459 -8.606165 11.131509 7.187711 -28.837323 10.799939 -18.319143 -14.112846 -8.346773 28.802068 2.121798 3.775228 63.402989 0.272690 10.030267 -20.207694 26.841453 -6.350227 18.218071 7.496729 -8.900346 
0.945909 0.822059 1.041106 90.772989 -3.189993 86.295805 0.733952 1.780045 6.723667 -2.599315 -7.245687 -1.359885 8.451942 3.465996 -18.365338 0.000000 -0.000000 0.000000 -3.936497 -4.193216 8.578787 -0.563597 -1.927705 -0.228663 3.602862 -4.004052 -13.519541 0.000000 -0.000000 0.000000 -1.177926 2.006734 -3.290606 0.341997 -3.701883 7.110711 -3.947046 -0.906010 -0.704906 2.675667 -22.170927 1.367363 3.777475 -33.600607 6.662250 -30.132584 3.366638 5.031300 -54.342502 -8.372053 12.200262 7.134366 -28.591642 10.497131 -18.950736 -13.783126 -8.315210 28.271009 2.200626 1.918599 63.607999 0.264497 11.486759 -20.360445 26.860242 -6.758948 18.583313 6.851168 -8.645976 
0.945164 0.822349 1.041462 90.814620 -3.049179 86.356595 0.650187 1.344778 6.516984 -2.567965 -6.968346 -1.039563 8.727793 3.689842 -18.282838 0.000000 -0.000000 0.000000 -3.813685 -4.105344 8.445520 -0.564734 -2.159659 -0.244510 3.777855 -4.276590 -13.704088 0.000000 -0.000000 0.000000 -1.028386 1.936542 -3.064752 0.321743 -3.813450 6.713740 -3.973133 -0.919282 -0.556192 2.881155 -21.993325 0.880231 3.553185 -33.480985 7.117444 -30.146349 3.224903 5.012732 -54.430452 -8.354496 12.226178 7.094739 -28.177598 10.362919 -19.401393 -13.862240 -8.069731 28.234595 2.311057 1.670421 63.502528 0.251906 11.633463 -20.315426 26.990576 -6.745003 18.638678 6.849380 -8.548101 
0.945557 0.823119 1.041941 90.671606 -2.981907 86.349112 0.581092 1.306788 6.661317 -2.514928 -6.890682 -1.110203 8.652865 3.685141 -18.291859 0.000000 -0.000000 0.000000 -3.878482 -4.215469 8.574652 -0.475918 -2.063852 -0.537734 3.730124 -4.233428 -13.527764 0.000000 -0.000000 0.000000 -0.956180 1.916319 -3.156570 0.275179 -3.876214 6.729585 -4.024009 -0.887159 -0.563336 2.900022 -21.832226 0.838504 3.498814 -33.247115 7.216223 -30.096178 3.219687 5.054456 -54.584965 -8.274844 12.166690 6.937985 -27.698629 10.449702 -19.632004 -13.885399 -7.854490 28.115014 2.256108 1.572844 63.609708 0.315653 11.633771 -20.275505 27.077325 -6.941481 18.590179 6.937190 -8.448331 
0.944920 0.823513 1.042081 90.535099 -2.950303 86.390865 0.591673 1.303154 6.530449 -2.540779 -6.787559 -0.970447 8.432263 3.628326 -18.256655 0.000000 -0.000000 0.000000 -3.870431 -4.229163 8.439047 -0.500077 -1.980499 -0.472946 3.744856 -4.154027 -13.534403 0.000000 -0.000000 0.000000 -1.018150 1.935768 -3.109648 0.309634 -3.893418 6.714123 -3.987315 -0.932987 -0.519861 2.921107 -21.739915 0.690213 3.434130 -33.247791 7.327938 -30.071476 3.160998 5.053787 -54.693325 -8.213115 12.246949 6.901837 -27.488468 10.425472 -19.416798 -13.953339 -7.930416 28.134505 2.314565 1.624341 63.517083 0.389150 11.702130 -20.253823 27.338525 -7.051411 18.320429 7.087363 -8.645204 
0.944107 0.824017 1.042200 90.332030 -2.869446 86.430643 0.656042 1.384665 6.377249 -2.565059 -6.741859 -0.749085 7.963994 3.557630 -18.283915 0.000000 -0.000000 0.000000 -3.758454 -4.160872 8.185592 -0.600474 -1.819367 -0.233304 3.739007 -4.102467 -13.612351 0.000000 -0.000000 0.000000 -1.083269 1.924891 -2.971606 0.345692 -3.880182 6.687556 -3.897605 -0.909030 -0.557816 2.957103 -21.689741 0.571099 3.434870 -33.244370 7.234813 -30.133854 3.111469 4.997384 -54.666143 -8.050241 12.217018 6.723216 -27.413977 10.546341 -19.248296 -13.881544 -7.696493 28.196014 2.336303 1.648186 63.399014 0.359316 11.661847 -20.211314 27.735016 -7.104596 18.095521 7.188739 -8.789085 
0.943841 0.824923 1.042091 90.290053 -2.788851 86.277093 0.689719 1.463821 6.599233 -2.522429 -6.951368 -0.779340 7.550834 3.498690 -18.285536 0.000000 -0.000000 0.000000 -3.648173 -3.903346 8.286046 -0.671863 -1.797135 -0.131528 3.630368 -4.296918 -13.725858 0.000000 -0.000000 0.000000 -1.098233 1.811710 -2.764756 0.340250 -3.914231 6.779248 -3.835385 -0.849408 -0.602013 2.947169 -21.606416 0.521990 3.476943 -33.082050 7.083999 -30.117682 2.957316 5.125806 -54.722386 -7.849750 12.163422 6.738810 -27.525809 10.621892 -19.001216 -13.544719 -7.501250 28.194074 2.371148 1.578578 63.452661 0.254911 11.545217 -20.281060 27.963904 -7.161844 17.978373 7.215305 -8.730978 
0.943223 0.826084 1.041736 90.297111 -2.702677 86.266288 0.712302 1.411500 6.642327 -2.507324 -7.054029 -0.819106 7.353604 3.564420 -18.352401 0.000000 -0.000000 0.000000 -3.541429 -3.626238 8.252505 -0.698399 -1.801299 -0.089784 3.513130 -4.572867 -13.785193 0.000000 -0.000000 0.000000 -1.077154 1.743015 -2.532387 0.360593 -3.891799 6.609649 -3.814798 -0.930814 -0.639632 2.984927 -21.578741 0.381312 3.300049 -32.986519 7.276889 -30.225864 2.960959 5.245516 -54.657025 -7.723037 12.109090 6.913575 -27.650584 10.399973 -19.058421 -13.502195 -7.534851 28.192309 2.388288 1.604235 63.478309 0.198294 11.598370 -20.233911 27.915703 -7.169789 18.086086 7.164843 -8.755902 
0.942659 0.827340 1.041276 90.310025 -2.575239 86.316903 0.798949 1.347898 6.584885 -2.528485 -7.083058 -0.814481 7.121639 3.545214 -18.458428 0.000000 -0.000000 0.000000 -3.451857 -3.528848 8.143821 -0.677896 -1.783060 -0.005935 3.411689 -4.693767 -13.916751 0.000000 -0.000000 0.000000 -0.965453 1.671983 -2.417038 0.373275 -3.907953 6.497551 -3.844500 -0.937327 -0.666833 2.959569 -21.522566 0.428240 3.232231 -32.924908 7.188950 -30.364486 2.988295 5.299273 -54.504479 -7.659751 12.098115 6.968127 -27.732268 10.357861 -18.950632 -13.590399 -7.568692 28.171825 2.356202 1.590682 63.533446 0.156018 11.647564 -20.100106 27.703703 -7.042614 17.895468 7.233829 -8.746110 
0.942519 0.828811 1.040890 90.297139 -2.467813 86.317365 0.854812 1.406004 6.644703 -2.538749 -7.062703 -0.874838 6.747085 3.401394 -18.535952 0.000000 -0.000000 0.000000 -3.422191 -3.512611 8.061544 -0.658701 -1.693802 0.161501 3.293047 -4.670621 -14.321577 0.000000 -0.000000 0.000000 -0.967639 1.704149 -2.557916 0.412937 -3.918088 6.734260 -3.849655 -0.871886 -0.680045 3.005101 -21.457306 0.501438 3.389065 -33.093680 7.057643 -30.373015 2.933185 5.283042 -54.469562 -7.788464 12.035543 6.936806 -27.573550 10.317485 -19.086028 -13.539159 -7.209688 28.274212 2.368985 1.592804 63.622589 0.070071 11.579325 -20.261342 27.309815 -6.968798 18.219339 7.084017 -8.661856 
0.941443 0.829736 1.040662 90.309544 -2.395492 86.351449 0.880994 1.439418 6.539890 -2.532310 -7.131703 -0.830280 6.413936 3.321850 -18.529588 0.000000 -0.000000 0.000000 -3.354795 -3.453729 7.797049 -0.689566 -1.709320 0.472152 3.231275 -4.700797 -14.621588 0.000000 -0.000000 0.000000 -0.981583 1.666102 -2.246039 0.438935 -3.884990 6.409848 -3.832005 -0.836502 -0.660297 3.032980 -21.269522 0.390168 3.355766 -33.202138 7.216884 -30.277292 2.957731 5.121520 -54.496341 -7.842688 12.061627 6.894037 -27.403963 10.558301 -19.252717 -13.617392 -7.175730 28.303937 2.386177 1.654975 63.757514 -0.029307 11.611891 -20.329190 27.015276 -6.868384 18.283578 6.979336 -8.859669 
0.940581 0.830714 1.040522 90.330029 -2.259647 86.335424 0.984604 1.557090 6.562025 -2.516284 -7.162047 -0.849415 5.809181 3.105818 -18.511376 0.000000 -0.000000 0.000000 -3.241126 -3.469397 7.663850 -0.713818 -1.696791 0.643179 3.221752 -4.722179 -14.799633 0.000000 -0.000000 0.000000 -0.992063 1.695255 -1.982241 0.539396 -3.883134 6.241414 -3.732244 -0.835949 -0.683973 2.990669 -21.208381 0.413745 3.514202 -33.222728 6.938362 -30.314296 2.752107 5.126793 -54.462081 -7.876287 12.101807 6.875262 -27.225487 10.611786 -19.219528 -13.764261 -7.336614 28.283372 2.431145 1.646068 63.866391 -0.238992 11.511271 -20.408774 26.847626 -6.859836 18.195000 6.942839 -8.768069 
0.940459 0.831577 1.040575 90.422242 -2.165016 86.302150 1.064170 1.644459 6.661751 -2.511025 -7.220993 -0.928065 5.144652 2.807686 -18.411131 0.000000 -0.000000 0.000000 -3.166162 -3.520172 7.725886 -0.760721 -1.716784 0.591773 3.225242 -4.722090 -14.940994 0.000000 -0.000000 0.000000 -1.100679 1.674465 -1.979697 0.611827 -3.997420 6.384531 -3.646301 -0.850508 -0.693273 3.123485 -21.078595 0.280196 3.659017 -33.351515 6.734574 -30.299311 2.600507 5.105145 -54.450417 -7.849065 12.100501 6.913529 -27.170005 10.572733 -19.309615 -13.751393 -7.142494 28.357335 2.475845 1.666243 63.918967 -0.272412 11.502983 -20.413392 26.608682 -6.760490 18.452165 6.878475 -8.588388 
